<svg width="15" height="15" viewBox="0 0 15 15" fill="none" xmlns="http://www.w3.org/2000/svg">
<path d="M13.6518 1.7884C12.6006 0.7372 10.8734 0.7372 9.7846 1.7884C9.0342 2.5396 8.1702 5.3556 7.7206 6.9324C7.307 5.3924 6.4438 2.5396 5.655 1.7884C4.6038 0.7372 2.8766 0.7372 1.7886 1.7884C0.7374 2.8396 0.7374 4.5668 1.7886 5.6556C2.539 6.406 5.355 7.27 6.9318 7.7204C5.3926 8.1332 2.5398 8.9964 1.7878 9.7852C0.7374 10.8364 0.7374 12.5636 1.7878 13.6524C2.8398 14.7036 4.5662 14.7036 5.655 13.6524C6.4062 12.9012 7.2694 10.0852 7.7198 8.5084C8.1326 10.0484 8.9966 12.9012 9.7846 13.6524C10.8358 14.7036 12.563 14.7036 13.6518 13.6524C14.703 12.6012 14.703 10.874 13.6518 9.7852C12.9006 9.034 10.0854 8.1708 8.5078 7.7204C10.0478 7.3076 12.9006 6.4436 13.6518 5.6556C14.703 4.5676 14.703 2.8396 13.6518 1.7884Z" fill="black" stroke="black"/>
</svg>
